#!OML:ASF X:\für Bonn\!DataBase\2005_08_12_Daniel\c3d\Daniel.ASF
:FULLY-SPECIFIED
:DEGREES
1793
root 21.8671 17.314 -21.9418 -2.01488 -37.9804 363.165
lowerback 14.36 -1.87004 0.0128894
upperback 3.7982 -2.57386 -0.877241
thorax -4.07128 -1.29876 -0.472356
lowerneck 1.51565 0.442292 -6.11918
upperneck 20.4142 0.0287538 3.12659
head 5.91288 -0.341653 2.01337
rclavicle -5.16654e-014 -6.36111e-015
rhumerus -32.4034 -12.8617 -83.1161
rradius 18.8275
rwrist 20.5544
rhand -19.1399 15.285
rfingers 7.12502
rthumb 7.17012 -14.5735
lclavicle -5.16654e-014 -6.36111e-015
lhumerus -31.6133 19.3795 83.4738
lradius 27.4267
lwrist -20.1665
lhand -11.418 -5.83451
lfingers 7.12502
lthumb 14.6178 23.6303
rfemur -14.6361 7.25192 24.9023
rtibia 41.5709
rfoot -25.7752 -4.36013
rtoes -4.81095
lfemur -14.3783 4.95676 -19.0957
ltibia 75.6948
lfoot -9.44203 -5.06638
ltoes -25.5481
1794
root 21.7567 17.3231 -21.8144 -2.22115 -38.1554 363.396
lowerback 14.387 -1.6973 -0.138158
upperback 3.83237 -2.37251 -0.948827
thorax -4.04485 -1.19913 -0.497479
lowerneck 1.43104 0.38336 -6.04327
upperneck 20.4274 -0.0652255 3.23436
head 5.93477 -0.372766 2.03123
rclavicle 5.31935e-014 1.92821e-014
rhumerus -32.0237 -11.8515 -83.7826
rradius 19.2873
rwrist 19.9921
rhand -19.4733 15.2307
rfingers 7.12502
rthumb 6.8483 -14.6385
lclavicle 5.31935e-014 1.92821e-014
lhumerus -31.7913 19.5795 83.3934
lradius 27.159
lwrist -20.3435
lhand -11.2328 -5.74455
lfingers 7.12502
lthumb 14.7962 23.7073
rfemur -13.8052 7.37047 24.8424
rtibia 41.3902
rfoot -26.0122 -4.34033
rtoes -4.96904
lfemur -15.5787 4.98477 -19.4243
ltibia 75.8912
lfoot -9.43627 -4.99316
ltoes -21.6598
1795
root 21.6455 17.3328 -21.6867 -2.4445 -38.3443 363.666
lowerback 14.439 -1.49872 -0.284935
upperback 3.85025 -2.13899 -1.06395
thorax -4.05106 -1.08358 -0.575271
lowerneck 1.31499 0.281672 -5.89081
upperneck 20.4982 -0.214405 3.30538
head 5.98304 -0.428005 2.02244
rclavicle 2.22949e-014 7.90169e-015
rhumerus -31.7305 -10.8877 -84.4871
rradius 19.8263
rwrist 19.2439
rhand -19.731 15.1829
rfingers 7.12502
rthumb 6.59953 -14.6942
lclavicle 2.22949e-014 7.90169e-015
lhumerus -31.9906 19.861 83.1838
lradius 26.8526
lwrist -20.8155
lhand -11.0607 -5.64988
lfingers 7.12502
lthumb 14.962 23.7897
rfemur -12.9921 7.54815 24.7505
rtibia 41.2174
rfoot -26.2601 -4.34586
rtoes -5.04663
lfemur -16.7166 4.97006 -19.8144
ltibia 75.8797
lfoot -9.4606 -4.98712
ltoes -17.0619
1796
root 21.5367 17.3386 -21.5597 -2.62189 -38.5704 363.903
lowerback 14.479 -1.31975 -0.452631
upperback 3.87005 -1.93166 -1.12361
thorax -4.04643 -0.980846 -0.579078
lowerneck 1.15087 0.227462 -5.92733
upperneck 20.5787 -0.30209 3.45884
head 6.03988 -0.461375 2.07474
rclavicle 1.72694e-014 1.2101e-014
rhumerus -31.3782 -9.94565 -85.0686
rradius 20.2868
rwrist 18.6911
rhand -19.9389 15.2615
rfingers 7.12502
rthumb 6.39885 -14.6218
lclavicle 1.72694e-014 1.2101e-014
lhumerus -32.1977 20.1632 83.0398
lradius 26.5926
lwrist -21.1554
lhand -10.9229 -5.51821
lfingers 7.12502
lthumb 15.0948 23.9114
rfemur -12.214 7.70893 24.6736
rtibia 41.04
rfoot -26.4569 -4.2625
rtoes -4.90364
lfemur -17.8466 4.93556 -20.1835
ltibia 75.7049
lfoot -9.52171 -5.11987
ltoes -12.3085
1797
root 21.4278 17.3485 -21.4315 -2.80642 -38.8306 364.141
lowerback 14.5521 -1.1262 -0.597975
upperback 3.87241 -1.70446 -1.21926
thorax -4.08026 -0.868338 -0.635961
lowerneck 1.12298 0.166959 -5.78308
upperneck 20.5503 -0.390883 3.48236
head 6.03917 -0.490431 2.0536
rclavicle -1.19246e-013 9.54166e-015
rhumerus -31.0863 -8.90764 -85.7526
rradius 20.7956
rwrist 17.9239
rhand -20.1393 15.2755
rfingers 7.12502
rthumb 6.20534 -14.6137
lclavicle -1.19246e-013 9.54166e-015
lhumerus -32.4545 20.5346 82.7484
lradius 26.3327
lwrist -21.6782
lhand -10.6904 -5.56281
lfingers 7.12502
lthumb 15.3187 23.8498
rfemur -11.4318 7.92994 24.5999
rtibia 40.8423
rfoot -26.6085 -4.2488
rtoes -4.96159
lfemur -18.8732 4.83979 -20.5884
ltibia 75.3132
lfoot -9.7025 -5.25156
ltoes -8.00758
1798
root 21.3188 17.3581 -21.3049 -2.9717 -39.0824 364.341
lowerback 14.6018 -0.936059 -0.692603
upperback 3.8978 -1.47469 -1.32153
thorax -4.07881 -0.75514 -0.72998
lowerneck 1.13124 0.112208 -5.7376
upperneck 20.5212 -0.492022 3.63435
head 6.03232 -0.524553 2.08962
rclavicle -1.87355e-014 2.13569e-014
rhumerus -30.8157 -7.91971 -86.4205
rradius 21.3556
rwrist 17.0536
rhand -20.2481 15.3704
rfingers 7.12502
rthumb 6.10025 -14.5218
lclavicle -1.87355e-014 2.13569e-014
lhumerus -32.6398 20.773 82.4756
lradius 26.0034
lwrist -22.0101
lhand -10.5656 -5.58782
lfingers 7.12502
lthumb 15.439 23.8156
rfemur -10.6122 8.189 24.5683
rtibia 40.6105
rfoot -26.7188 -4.22548
rtoes -4.97114
lfemur -19.8376 4.70568 -20.9435
ltibia 74.7608
lfoot -10.0507 -5.50823
ltoes -4.72138
1799
root 21.2093 17.3685 -21.1764 -3.1081 -39.329 364.568
lowerback 14.631 -0.742663 -0.842676
upperback 3.89504 -1.24649 -1.38657
thorax -4.09371 -0.642067 -0.753639
lowerneck 1.2074 0.0708941 -5.75334
upperneck 20.4191 -0.566203 3.74444
head 5.99013 -0.552622 2.12315
rclavicle 7.97002e-014 -1.86112e-014
rhumerus -30.4884 -6.94024 -86.9727
rradius 21.8148
rwrist 16.3424
rhand -20.2276 15.4414
rfingers 7.12502
rthumb 6.12011 -14.4502
lclavicle 7.97002e-014 -1.86112e-014
lhumerus -32.8982 21.299 82.13
lradius 25.6554
lwrist -22.723
lhand -10.4836 -5.78848
lfingers 7.12502
lthumb 15.5179 23.6088
rfemur -9.84833 8.40668 24.509
rtibia 40.3703
rfoot -26.7951 -4.22559
rtoes -5.15094
lfemur -20.7691 4.54012 -21.3357
ltibia 74.0213
lfoot -10.5973 -5.86606
ltoes -3.54543
